<svg width="141" height="66" viewBox="0 0 141 66" fill="none" xmlns="http://www.w3.org/2000/svg">
<path d="M78.9764 12.177L92.7942 12.177L92.7942 8.46022L93.0073 0.207764L89.3202 3.93169L89.1142 8.46022L82.8482 8.46022L78.9764 12.177Z" fill="white"/>
<path d="M70.3697 57.0996V17.2747H59.6573L35.8726 16.6604L46.6054 27.2872L59.6573 27.881V45.9404L70.3697 57.0996Z" fill="white"/>
<path d="M34.3047 16.7429L34.3047 56.6504L68.2241 57.5122L58.29 46.9249L44.9967 46.2068L44.9967 27.9252L34.3047 16.7429Z" fill="white"/>
<path d="M118.709 25.7883L110.065 16.715L140.914 16.715L140.914 25.7883L118.709 25.7883Z" fill="white"/>
<path d="M115.824 41.4102L115.824 32.3368L137.995 32.3368L137.995 41.4102L115.824 41.4102Z" fill="white"/>
<path d="M118.709 48.1165L110.065 57.1898L140.914 57.1898L140.914 48.1165L118.709 48.1165Z" fill="white"/>
<path d="M117.087 26.2987L108.014 17.662V56.0854L117.087 46.9086V26.2987Z" fill="white"/>
<path d="M74.7484 56.0686V17.3718L83.8818 26.0646V46.094L74.7484 56.0686Z" fill="white"/>
<path d="M85.7249 25.2634L77.0722 17.0914L95.1387 17.0914L104.432 25.2634L104.873 46.6147L95.1387 56.7496L76.5114 56.7496L85.0439 47.6162L95.1387 47.6162L95.1387 25.7842L85.7249 25.2634Z" fill="white"/>
<path d="M5.81741e-05 57.4536V16.6245H10.9893V46.0131L5.81741e-05 57.4536Z" fill="white"/>
<path d="M2.78939 57.4536L30.0088 57.4536L30.0088 48.155L11.3453 48.155L2.78939 57.4536Z" fill="white"/>
</svg>
