<svg width="18" height="17" viewBox="0 0 18 17" fill="none" xmlns="http://www.w3.org/2000/svg">
<path d="M10.1922 7.99998L10.1922 6.99998L10.1922 7.99998ZM1.23774 7.29287C0.847216 7.6834 0.847216 8.31656 1.23774 8.70709L7.6017 15.071C7.99223 15.4616 8.62539 15.4616 9.01592 15.071C9.40644 14.6805 9.40644 14.0474 9.01592 13.6568L3.35906 7.99998L9.01591 2.34312C9.40644 1.9526 9.40644 1.31944 9.01591 0.928911C8.62539 0.538387 7.99223 0.538387 7.6017 0.928911L1.23774 7.29287ZM16 16C16.9981 16.0624 16.9981 16.062 16.9981 16.0615C16.9981 16.0613 16.9981 16.0609 16.9982 16.0605C16.9982 16.0597 16.9983 16.0588 16.9983 16.0578C16.9984 16.0558 16.9986 16.0533 16.9988 16.0504C16.9991 16.0444 16.9995 16.0365 17 16.0268C17.001 16.0073 17.0022 15.9803 17.0034 15.9464C17.0059 15.8785 17.0084 15.7825 17.0091 15.6624C17.0106 15.4226 17.005 15.0848 16.9772 14.6813C16.922 13.8799 16.7774 12.7907 16.4107 11.6851C16.0449 10.5826 15.4396 9.40813 14.4267 8.50398C13.3935 7.58163 12.0013 6.99998 10.1922 6.99998L10.1922 8.99998C11.537 8.99998 12.4477 9.41833 13.0948 9.99598C13.7623 10.5918 14.2147 11.4173 14.5124 12.3149C14.8091 13.2093 14.9338 14.12 14.9819 14.8187C15.0058 15.1652 15.0104 15.4524 15.0092 15.6501C15.0086 15.7487 15.0065 15.8247 15.0047 15.874C15.0038 15.8986 15.003 15.9165 15.0025 15.9273C15.0022 15.9327 15.002 15.9363 15.0019 15.938C15.0019 15.9389 15.0018 15.9393 15.0018 15.9392C15.0018 15.9392 15.0019 15.9391 15.0019 15.9388C15.0019 15.9387 15.0019 15.9384 15.0019 15.9383C15.0019 15.938 15.0019 15.9376 16 16ZM10.1922 6.99998L1.94485 6.99998L1.94485 8.99998L10.1922 8.99998L10.1922 6.99998Z" fill="black"/>
</svg>
