<svg width="439" height="153" viewBox="0 0 439 153" fill="none" xmlns="http://www.w3.org/2000/svg">
<path d="M381.662 152.113H21.2801L0 131.621H66.5987L67.978 122.361H124.528L125.119 109.947H177.728L182.457 98.3219L188.368 83.9382L268.956 81.9678L273.291 105.602L265.804 105.486L263.636 85.3174L188.959 86.3026L185.215 113.691L127.68 114.676V125.71L70.9336 125.316L69.5543 135.562L10.443 135.168L22.6593 146.202L396.243 143.641L418.902 116.646L265.804 105.486L439 108.174L407.08 152.113H381.662Z" fill="white"/>
<path d="M85.7114 99.2985H102.263L106.597 105.801L130.132 95.7603L131.227 97.3366L109.049 109.947L119.208 122.943L85.7114 122.352V99.2985Z" fill="white"/>
<path d="M337.525 85.506H354.077L358.411 92.0082L381.946 81.9678L383.041 83.5441L360.863 96.1545L371.022 109.151L337.525 108.559V85.506Z" fill="white"/>
<path d="M52.2148 108.757H35.7353L31.4193 115.262L7.9863 105.218L6.89617 106.795L28.9781 119.409L18.8634 132.409L52.2148 131.818V108.757Z" fill="white"/>
<path d="M218.712 0L223.047 21.8712H233.687V24.4327L224.032 26.6001L225.214 83.1499L215.756 83.544L218.121 26.6001L209.057 24.8267V22.4623L217.924 21.2801L218.712 0Z" fill="white"/>
<path d="M243.933 59.5054C243.933 59.5054 239.81 58.1262 239.81 53.2003C239.81 48.8655 242.174 46.501 247.297 46.501C252.42 46.501 254.159 49.7678 254.193 53.3973C254.235 57.7322 250.041 59.5054 250.041 59.5054L251.42 83.15L243.341 83.347L243.933 59.5054Z" fill="white"/>
</svg>
