<svg width="120" height="120" viewBox="0 0 120 120" fill="none" xmlns="http://www.w3.org/2000/svg">
<g clip-path="url(#clip0)">
<path d="M48.8454 101.664H-260.721L-279 84.0616H-221.792L-220.607 76.1066H-172.031L-171.524 65.4436H-126.333L-122.271 55.4576L-117.193 43.1021L23.1569 45.2209L24.5981 63.9203H20.2745L18.8333 48.8239L-116.685 45.1331L-119.901 68.6594L-169.323 69.5057V78.984L-218.068 78.6454L-219.253 87.4467L-270.03 87.1082L-259.536 96.5864L61.3703 94.3861L80.8345 71.1983L20.2745 63.9203H98.0984L70.6792 101.664H48.8454Z" fill="#AB2C4B"/>
<path d="M46.2158 44.657H60.4332L64.1568 50.2424L84.3731 41.6177L85.3135 42.9717L66.2629 53.804L74.989 64.9675L46.2158 64.4597V44.657Z" fill="#AB2C4B"/>
<path d="M-16 25.0393H-1.78265L1.94095 30.6247L22.1572 22L23.0977 23.354L4.04704 34.1863L12.7732 45.3498L-16 44.8421V25.0393Z" fill="#AB2C4B"/>
<path d="M21 64L81 71L61 94.5L0 95V48H18.5L21 64Z" fill="black"/>
</g>
<defs>
<clipPath id="clip0">
<rect width="120" height="120" fill="white"/>
</clipPath>
</defs>
</svg>
